<svg width="80" height="84" viewBox="0 0 80 84" fill="none" xmlns="http://www.w3.org/2000/svg">
<path d="M69.4324 20.9664L52.9329 3.89979V3.72994H8.43642V31.2526L31.662 52.0424L31.7638 52.1376L39.603 59.149L71.2582 31.4972V24.7032L69.4664 20.9732L69.4324 20.9664ZM43.4784 19.3223L43.5395 19.0437L43.9196 17.3656H48.5552L45.8879 29.9618C45.8403 30.186 45.7928 30.3898 45.7589 30.5732C45.6936 30.8912 45.6527 31.2138 45.6367 31.538C45.6248 31.7675 45.6946 31.9938 45.8336 32.1766C45.8955 32.2453 45.9707 32.3007 46.0548 32.3392C46.1388 32.3778 46.2298 32.3988 46.3222 32.4008C46.9534 32.4008 47.7747 31.9864 48.7724 31.1643C49.8594 30.2162 50.7476 29.0616 51.3854 27.7673C52.0589 26.4365 52.4362 24.9755 52.4913 23.4847C52.5463 21.9939 52.2779 20.509 51.7044 19.1321C51.1738 17.902 50.3871 16.7995 49.3968 15.8981C48.3075 14.9427 47.0383 14.215 45.6639 13.758C44.0426 13.2198 42.3425 12.958 40.6346 12.9834C38.8577 12.9676 37.0888 13.2219 35.3881 13.7376C33.8787 14.2047 32.465 14.9387 31.2141 15.9049C29.9925 16.8476 28.9666 18.02 28.1938 19.3563C27.4642 20.5941 26.9157 21.9303 26.5649 23.324C26.1875 24.7748 25.9981 26.2681 26.0015 27.7673C25.9702 29.6752 26.3765 31.5648 27.1893 33.2909C27.9838 34.96 29.1831 36.4035 30.6779 37.4896C32.3307 38.6804 34.2192 39.5028 36.2162 39.9015C38.6294 40.3812 41.1031 40.4775 43.5463 40.1868C45.4467 40.0065 47.3043 39.5129 49.0439 38.7261C50.5373 38.0176 51.8456 36.9709 52.865 35.6688H56.6047C56.0103 36.9273 55.2071 38.0759 54.2292 39.0658C53.2194 40.067 52.0609 40.9057 50.7949 41.5524C49.4002 42.2553 47.9193 42.7715 46.3901 43.0879C44.6401 43.4519 42.8563 43.6273 41.069 43.611C38.437 43.6493 35.8157 43.2663 33.3045 42.4764C31.1541 41.8122 29.1691 40.6983 27.4811 39.2085C25.9167 37.8048 24.6933 36.062 23.9043 34.1129C23.0819 32.0336 22.6738 29.8133 22.703 27.5771C22.6754 25.1711 23.099 22.7812 23.9518 20.5316C24.7426 18.3922 25.9815 16.4469 27.5853 14.8263C29.189 13.2057 31.1205 11.9472 33.2502 11.1355C35.6285 10.2065 38.1633 9.74518 40.716 9.77664C42.7929 9.75389 44.8584 10.0847 46.8245 10.755C48.5861 11.3618 50.2036 12.3263 51.5755 13.5881C52.8887 14.7957 53.9239 16.2748 54.6093 17.9227C55.3135 19.6662 55.6664 21.5318 55.6478 23.4123C55.6481 24.9861 55.363 26.5469 54.8061 28.0187C54.2539 29.5127 53.4352 30.8939 52.3899 32.0951C51.3622 33.2821 50.1066 34.2502 48.6977 34.9418C47.2722 35.6501 45.7011 36.0153 44.1096 36.0085C43.3435 36.0508 42.5804 35.8816 41.9038 35.5193C41.6348 35.3451 41.404 35.1179 41.2255 34.8516C41.047 34.5853 40.9245 34.2855 40.8654 33.9703C40.6045 34.2147 40.3279 34.4416 40.0373 34.6497C39.8069 34.8178 39.5666 34.9721 39.3179 35.1117C38.708 35.4593 38.0454 35.7049 37.3564 35.8386C36.0653 36.1046 34.7241 35.9743 33.5081 35.465C32.2736 34.9474 31.2334 34.0536 30.5353 32.9104C29.7333 31.5659 29.3351 30.0186 29.3883 28.4535C29.3943 26.5786 29.7968 24.7263 30.5693 23.0183C31.3193 21.2999 32.4857 19.7961 33.9628 18.6429C35.3686 17.5244 37.115 16.9225 38.9107 16.9376C39.7954 16.8846 40.6786 17.0651 41.4718 17.4609C42.2651 17.8567 42.9406 18.4541 43.4309 19.1932L43.5124 19.3223H43.4784ZM33.8814 28.4195C33.8071 29.5649 34.115 30.7025 34.7569 31.6535C35.0215 32.0113 35.3678 32.3004 35.767 32.4966C36.1661 32.6929 36.6064 32.7905 37.051 32.7813C37.6037 32.7737 38.1485 32.6486 38.6493 32.4143C39.1501 32.1801 39.5954 31.842 39.9559 31.4225C40.2039 31.1624 40.4308 30.8829 40.6346 30.5868C40.7812 30.3834 40.9172 30.1725 41.0418 29.955C41.3805 29.3661 41.6536 28.7419 41.8563 28.0934C42.279 26.8542 42.508 25.5571 42.535 24.248V24.2004C42.5355 23.9372 42.5219 23.6741 42.4943 23.4123C42.4617 23.1133 42.4026 22.8177 42.3178 22.5291C42.1744 22.0538 41.9442 21.6092 41.6391 21.2178C41.3661 20.8615 41.0125 20.5752 40.6075 20.3822C40.181 20.1898 39.7178 20.0924 39.25 20.0968C38.729 20.1019 38.2142 20.2115 37.7362 20.4192C37.2583 20.6269 36.8268 20.9285 36.4673 21.3062C35.6028 22.1699 34.956 23.2272 34.5805 24.3907C34.1344 25.6707 33.905 27.0163 33.9018 28.372L33.8814 28.4195ZM74.9504 28.2429C75.4019 27.8332 75.9903 27.6078 76.5996 27.611C77.0941 27.6169 77.5775 27.7579 77.9978 28.0187C78.3205 28.2127 78.6094 28.4583 78.853 28.7456C79.5462 29.5559 79.9498 30.5743 80 31.6399V79.6331C79.9955 80.6519 79.5908 81.6281 78.8733 82.3507C78.1531 83.0714 77.1769 83.477 76.1585 83.4785H3.84153C2.82374 83.474 1.84857 83.0689 1.12667 82.3507C0.768656 81.9948 0.484727 81.5714 0.291332 81.1049C0.0979368 80.6384 -0.00108236 80.1382 8.92284e-06 79.6331V31.6399C0.0509024 30.5573 0.464521 29.5234 1.17418 28.7049C1.42444 28.4377 1.71258 28.2088 2.02936 28.0255C2.43915 27.7765 2.9075 27.6405 3.38679 27.6314C3.86753 27.6236 4.33982 27.7584 4.74422 28.0187V1.86157C4.74417 1.37252 4.93636 0.903099 5.27927 0.554757C5.62218 0.206416 6.08825 0.00713936 6.57675 0L53.5437 0C53.8168 0.000240097 54.0864 0.0613354 54.3329 0.178851C54.5794 0.296367 54.7967 0.467356 54.969 0.679405L74.4142 20.783C74.753 21.1271 74.9432 21.5907 74.9436 22.0739V22.6106C74.9436 22.6853 74.9436 22.7601 74.9436 22.8416C74.9436 22.9231 74.9436 22.9911 74.9436 23.0658V28.2497L74.9504 28.2429ZM38.3541 63.008L30.4675 55.9558L3.71936 79.4225V79.6331C3.70767 79.6614 3.70767 79.6931 3.71936 79.7214C3.7481 79.7303 3.77885 79.7303 3.80759 79.7214H76.1517C76.1804 79.7303 76.2112 79.7303 76.2399 79.7214C76.2516 79.6931 76.2516 79.6614 76.2399 79.6331V79.4904L49.166 55.7112L40.8179 63.0216C40.479 63.322 40.042 63.4879 39.5894 63.4879C39.1367 63.4879 38.6998 63.322 38.3609 63.0216L38.3541 63.008ZM27.678 53.4964L3.71936 32.034V74.4832L27.678 53.4624V53.4964ZM76.2739 74.5987V32.0136L51.9827 53.2586L76.2739 74.5647V74.5987Z" fill="#424242"/>
</svg>
