<svg width="76" height="94" viewBox="0 0 76 94" fill="none" xmlns="http://www.w3.org/2000/svg">
<path d="M41.6712 42.2162C31.9396 42.2162 23.9775 34.2541 23.9775 24.5225V18.1771C23.9775 8.44544 31.9396 0.483398 41.6712 0.483398C51.4028 0.483398 59.3648 8.44544 59.3648 18.1771V24.5225C59.3648 34.2541 51.4028 42.2162 41.6712 42.2162Z" fill="#424242"/>
<path d="M38.358 80.9076C38.4583 80.7877 38.5503 80.6637 38.6392 80.5366C38.6526 80.5169 38.6681 80.4983 38.6815 80.4787C38.7611 80.3619 38.8335 80.242 38.9027 80.12C38.9213 80.088 38.941 80.058 38.9586 80.026C39.0216 79.9112 39.0785 79.7934 39.1322 79.6745C39.1508 79.6342 39.1705 79.5939 39.188 79.5526C39.2366 79.4389 39.28 79.3241 39.3203 79.2073C39.3369 79.1587 39.3555 79.1112 39.371 79.0616C39.4072 78.9499 39.4371 78.8383 39.4661 78.7246C39.4805 78.6688 39.494 78.613 39.5064 78.5572C39.5302 78.4486 39.5498 78.3401 39.5674 78.2305C39.5777 78.1685 39.586 78.1055 39.5942 78.0435C39.6077 77.9391 39.617 77.8336 39.6242 77.7282C39.6284 77.66 39.6315 77.5918 39.6335 77.5235C39.6366 77.4222 39.6377 77.322 39.6346 77.2207C39.6325 77.1473 39.6284 77.0739 39.6242 77.0016C39.618 76.9054 39.6108 76.8093 39.5994 76.7132C39.5901 76.6346 39.5787 76.5571 39.5663 76.4796C39.5519 76.3886 39.5374 76.2977 39.5178 76.2077C39.5002 76.1261 39.4795 76.0444 39.4588 75.9638C39.4371 75.879 39.4154 75.7932 39.3896 75.7095C39.3637 75.6248 39.3317 75.541 39.3017 75.4573C39.2728 75.3777 39.2459 75.2992 39.2128 75.2206C39.1767 75.1328 39.1343 75.048 39.0929 74.9622C39.0588 74.8899 39.0257 74.8175 38.9885 74.7462C38.94 74.6563 38.8852 74.5684 38.8314 74.4805C38.7932 74.4175 38.757 74.3524 38.7157 74.2903C38.6505 74.1932 38.5782 74.0991 38.5069 74.0051C38.4697 73.9555 38.4355 73.9048 38.3963 73.8562C38.2815 73.7157 38.1585 73.5792 38.0283 73.449L34.4923 69.9129C34.361 69.7817 34.2245 69.6597 34.085 69.545C34.0375 69.5057 33.9858 69.4716 33.9372 69.4344C33.8431 69.362 33.7491 69.2897 33.6509 69.2245C33.5889 69.1832 33.5248 69.148 33.4617 69.1098C33.3739 69.0561 33.286 69.0013 33.195 68.9527C33.1248 68.9144 33.0514 68.8824 32.9801 68.8483C32.8943 68.8069 32.8085 68.7646 32.7206 68.7284C32.6421 68.6953 32.5635 68.6684 32.4839 68.6395C32.4002 68.6095 32.3175 68.5785 32.2327 68.5516C32.148 68.5258 32.0622 68.5041 31.9764 68.4814C31.8958 68.4607 31.8152 68.44 31.7345 68.4224C31.6436 68.4028 31.5526 68.3883 31.4606 68.3739C31.3831 68.3615 31.3066 68.3501 31.2291 68.3408C31.133 68.3294 31.0368 68.3222 30.9397 68.316C30.8663 68.3118 30.7939 68.3077 30.7205 68.3056C30.6192 68.3036 30.5179 68.3036 30.4167 68.3067C30.3484 68.3087 30.2812 68.3118 30.213 68.316C30.1066 68.3232 30.0011 68.3325 29.8957 68.346C29.8337 68.3532 29.7717 68.3625 29.7107 68.3728C29.6011 68.3904 29.4916 68.41 29.382 68.4338C29.3262 68.4462 29.2714 68.4597 29.2166 68.4741C29.1029 68.5031 28.9902 68.5341 28.8786 68.5692C28.83 68.5847 28.7825 68.6023 28.7349 68.6188C28.6181 68.6602 28.5024 68.7026 28.3887 68.7522C28.3484 68.7697 28.3091 68.7894 28.2688 68.808C28.1499 68.8628 28.031 68.9196 27.9153 68.9827C27.8843 69.0002 27.8543 69.0188 27.8233 69.0374C27.7013 69.1077 27.5804 69.1801 27.4625 69.2597C27.4429 69.2731 27.4253 69.2876 27.4067 69.301C27.2796 69.3899 27.1556 69.4819 27.0346 69.5832C26.9096 69.6876 26.7865 69.7951 26.6697 69.9129L24.2779 72.3048C23.972 72.6107 23.4748 72.6107 23.1678 72.3048L12.8274 61.9654C12.5214 61.6594 12.5214 61.1622 12.8274 60.8552L15.2192 58.4634C15.336 58.3466 15.4445 58.2236 15.5489 58.0986C15.6492 57.9787 15.7412 57.8546 15.8301 57.7275C15.8435 57.7078 15.859 57.6892 15.8725 57.6696C15.9521 57.5528 16.0244 57.4329 16.0937 57.3109C16.1123 57.2789 16.1319 57.2489 16.1495 57.2169C16.2125 57.1021 16.2694 56.9843 16.3231 56.8654C16.3417 56.8251 16.3614 56.7848 16.3789 56.7435C16.4275 56.6298 16.4709 56.515 16.5112 56.3982C16.5278 56.3497 16.5464 56.3021 16.5619 56.2525C16.5981 56.1409 16.628 56.0292 16.657 55.9155C16.6715 55.8597 16.6849 55.8039 16.6973 55.7481C16.7211 55.6396 16.7407 55.531 16.7583 55.4215C16.7686 55.3594 16.7769 55.2964 16.7852 55.2344C16.7986 55.13 16.8079 55.0245 16.8151 54.9191C16.8193 54.8509 16.8224 54.7827 16.8244 54.7145C16.8275 54.6132 16.8286 54.5129 16.8255 54.4116C16.8234 54.3382 16.8193 54.2648 16.8151 54.1925C16.8089 54.0964 16.8017 54.0002 16.7903 53.9041C16.781 53.8255 16.7697 53.748 16.7572 53.6705C16.7428 53.5795 16.7283 53.4886 16.7087 53.3986C16.6911 53.317 16.6704 53.2353 16.6498 53.1547C16.628 53.07 16.6063 52.9842 16.5805 52.9004C16.5547 52.8157 16.5226 52.732 16.4926 52.6482C16.4637 52.5686 16.4368 52.4901 16.4037 52.4115C16.3676 52.3237 16.3252 52.2389 16.2838 52.1531C16.2497 52.0808 16.2167 52.0084 16.1795 51.9371C16.1309 51.8472 16.0761 51.7593 16.0223 51.6715C15.9841 51.6084 15.9479 51.5433 15.9066 51.4813C15.8415 51.3841 15.7691 51.29 15.6978 51.196C15.6606 51.1464 15.6265 51.0957 15.5872 51.0471C15.4724 50.9066 15.3494 50.7701 15.2192 50.6399L11.6832 47.1039C11.5519 46.9726 11.4155 46.8506 11.2759 46.7359C11.2284 46.6966 11.1767 46.6625 11.1281 46.6253C11.034 46.5529 10.94 46.4806 10.8418 46.4155C10.7798 46.3741 10.7157 46.339 10.6526 46.3007C10.5648 46.247 10.4769 46.1922 10.386 46.1436C10.3157 46.1054 10.2423 46.0733 10.171 46.0392C10.0852 45.9979 9.99938 45.9555 9.91153 45.9193C9.83297 45.8862 9.75441 45.8594 9.67482 45.8304C9.5911 45.8004 9.50841 45.7694 9.42365 45.7426C9.33889 45.7167 9.2531 45.695 9.16731 45.6723C9.08669 45.6516 9.00607 45.6309 8.92544 45.6134C8.83448 45.5937 8.74353 45.5793 8.65153 45.5648C8.57401 45.5524 8.49752 45.541 8.42 45.5317C8.32387 45.5203 8.22774 45.5131 8.13058 45.5069C8.0572 45.5028 7.98484 45.4986 7.91145 45.4966C7.81016 45.4945 7.70886 45.4945 7.60757 45.4976C7.53935 45.4997 7.47216 45.5028 7.40394 45.5069C7.29851 45.5141 7.19205 45.5234 7.08662 45.5369C7.0246 45.5441 6.96258 45.5534 6.9016 45.5637C6.79203 45.5813 6.68247 45.601 6.5729 45.6247C6.51709 45.6371 6.46231 45.6506 6.40752 45.665C6.29382 45.694 6.18116 45.725 6.06953 45.7601C6.02095 45.7756 5.9734 45.7932 5.92585 45.8097C5.80905 45.8511 5.69329 45.8935 5.57959 45.9431C5.53927 45.9607 5.5 45.9803 5.45969 45.9989C5.34082 46.0537 5.22195 46.1105 5.10618 46.1736C5.07518 46.1912 5.0452 46.2098 5.01419 46.2284C4.89222 46.2987 4.77129 46.371 4.65345 46.4506C4.63382 46.464 4.61624 46.4785 4.59764 46.4919C4.4705 46.5808 4.34647 46.6728 4.22553 46.7741C4.10046 46.8785 3.97746 46.986 3.86066 47.1039C-1.04184 51.7686 -1.4801 62.5731 10.5844 74.5477C22.559 86.6122 33.3635 86.174 38.0283 81.2715C38.1461 81.1557 38.2536 81.0327 38.358 80.9076Z" fill="#424242"/>
<path d="M7.78638 45.6051C7.8267 45.6051 7.86804 45.6051 7.90835 45.6061C7.97967 45.6082 8.05203 45.6123 8.12335 45.6165C8.21844 45.6227 8.3125 45.6299 8.40656 45.6413C8.48305 45.6506 8.55851 45.662 8.63396 45.6744C8.72389 45.6888 8.81278 45.7033 8.9027 45.7219C8.97609 45.7374 9.04844 45.756 9.14044 45.7798L9.16421 45.786C9.2407 45.8056 9.31616 45.8253 9.39161 45.849C9.46396 45.8718 9.53425 45.8976 9.60557 45.9235L9.63761 45.9348L9.68723 45.9524C9.74821 45.9741 9.8092 45.9958 9.87018 46.0217C9.94253 46.0516 10.0139 46.0858 10.0852 46.1199L10.1245 46.1385L10.1865 46.1684C10.2361 46.1922 10.2867 46.215 10.3353 46.2408C10.4097 46.2811 10.4821 46.3256 10.5555 46.37L10.5968 46.3948L10.664 46.4351C10.7043 46.4589 10.7436 46.4816 10.7829 46.5075C10.8707 46.5664 10.9555 46.6305 11.0402 46.6956L11.063 46.7132L11.125 46.7586C11.1529 46.7793 11.1808 46.799 11.2087 46.8217C11.3503 46.9375 11.4847 47.0594 11.6087 47.1824L15.1427 50.7174C15.2657 50.8404 15.3877 50.9758 15.5035 51.1175C15.5262 51.1443 15.5458 51.1733 15.5665 51.2012L15.612 51.2632L15.6316 51.289C15.6957 51.3728 15.7598 51.4565 15.8177 51.5433C15.8435 51.5826 15.8673 51.6229 15.8911 51.6632L15.9303 51.7294L15.9562 51.7717C16.0006 51.8441 16.044 51.9154 16.0844 51.9898C16.1102 52.0395 16.134 52.0891 16.1577 52.1397L16.1867 52.2017L16.2053 52.241C16.2394 52.3113 16.2735 52.3826 16.3035 52.455C16.3283 52.5139 16.35 52.5749 16.3717 52.6348L16.3903 52.6865L16.4017 52.7185C16.4275 52.7899 16.4534 52.8612 16.4761 52.9335C16.4988 53.0069 16.5185 53.0813 16.5371 53.1558L16.5474 53.1971C16.5671 53.2715 16.5857 53.346 16.6022 53.4224C16.6208 53.5113 16.6353 53.6002 16.6498 53.6891C16.6622 53.7656 16.6735 53.8411 16.6828 53.9186C16.6942 54.0126 16.7014 54.1067 16.7066 54.2008C16.7107 54.2721 16.7149 54.3444 16.7169 54.4158C16.719 54.515 16.719 54.6132 16.7159 54.7124C16.7138 54.7796 16.7107 54.8468 16.7066 54.914C16.6994 55.0173 16.6901 55.1197 16.6777 55.223C16.6704 55.284 16.6611 55.345 16.6508 55.407C16.6342 55.5145 16.6146 55.621 16.5908 55.7274C16.5795 55.7791 16.5671 55.8298 16.5505 55.8918C16.5226 56.0024 16.4926 56.113 16.4575 56.2215C16.4461 56.2556 16.4348 56.2897 16.4224 56.3238L16.4079 56.3642C16.3676 56.4779 16.3262 56.5905 16.2787 56.7022C16.2683 56.727 16.257 56.7507 16.2446 56.7755L16.2229 56.821C16.1691 56.9368 16.1143 57.0526 16.0523 57.1652C16.043 57.1828 16.0327 57.1993 16.0223 57.2159L15.9975 57.2572C15.9148 57.4019 15.8477 57.5104 15.7805 57.6086L15.7608 57.6355L15.7391 57.6655C15.6389 57.8092 15.551 57.9239 15.4631 58.0293C15.3422 58.174 15.2399 58.2877 15.1396 58.387L12.7478 60.7788C12.3995 61.1271 12.3995 61.6935 12.7478 62.0419L23.0913 72.3823C23.2598 72.5508 23.4841 72.6438 23.7229 72.6438C23.9616 72.6438 24.1859 72.5508 24.3544 72.3823L26.7462 69.9905C26.8465 69.8902 26.9571 69.79 27.1039 69.667C27.2093 69.5791 27.3251 69.4912 27.4687 69.391L27.4977 69.3693L27.5235 69.3507C27.6228 69.2835 27.7313 69.2163 27.877 69.1326L27.9173 69.1088C27.9339 69.0985 27.9504 69.0892 27.968 69.0799C28.0817 69.0178 28.1975 68.962 28.3143 68.9083L28.3597 68.8876C28.3835 68.8762 28.4073 68.8649 28.4321 68.8545C28.5437 68.807 28.6574 68.7646 28.7722 68.7243L28.8125 68.7098C28.8455 68.6985 28.8786 68.686 28.9127 68.6757C29.0223 68.6406 29.1329 68.6106 29.2569 68.5796C29.3065 68.5672 29.3561 68.5548 29.4068 68.5434C29.5133 68.5196 29.6208 68.501 29.7293 68.4835C29.7903 68.4741 29.8502 68.4648 29.9112 68.4576C30.0146 68.4452 30.1179 68.4349 30.2223 68.4287C30.2885 68.4245 30.3546 68.4214 30.4218 68.4194C30.4807 68.4173 30.5386 68.4163 30.5975 68.4163C30.6378 68.4163 30.6792 68.4163 30.7195 68.4173C30.7908 68.4194 30.8632 68.4235 30.9345 68.4276C31.0296 68.4338 31.1237 68.4411 31.2177 68.4524C31.2942 68.4617 31.3697 68.4731 31.4451 68.4855C31.535 68.5 31.6239 68.5145 31.7139 68.5331C31.7872 68.5486 31.8596 68.5672 31.9516 68.5909L31.9754 68.5972C32.0519 68.6168 32.1273 68.6364 32.2028 68.6602C32.2751 68.6829 32.3464 68.7088 32.4167 68.7346L32.4488 68.746L32.4984 68.7636C32.5594 68.7853 32.6203 68.807 32.6803 68.8328C32.7527 68.8628 32.824 68.8969 32.8953 68.931L32.9346 68.9496L32.9966 68.9796C33.0462 69.0034 33.0969 69.0261 33.1454 69.053C33.2199 69.0933 33.2922 69.1377 33.3656 69.1822L33.4069 69.207L33.4741 69.2473C33.5144 69.2711 33.5537 69.2938 33.593 69.3197C33.6809 69.3786 33.7656 69.4427 33.8504 69.5078L33.8731 69.5253L33.9351 69.5708C33.963 69.5915 33.9909 69.6111 34.0189 69.6339C34.1605 69.7496 34.2948 69.8716 34.4189 69.9946L37.9549 73.5307C38.0779 73.6537 38.1999 73.7891 38.3156 73.9307C38.3384 73.9575 38.358 73.9865 38.3787 74.0144L38.4242 74.0764L38.4438 74.1023C38.5079 74.186 38.572 74.2697 38.6299 74.3565C38.6557 74.3958 38.6795 74.4361 38.7033 74.4764L38.7425 74.5426L38.7684 74.585C38.8128 74.6573 38.8562 74.7286 38.8965 74.8031C38.9224 74.8527 38.9462 74.9023 38.9699 74.9529L38.9989 75.015L39.0185 75.0553C39.0526 75.1256 39.0867 75.1969 39.1167 75.2682C39.1415 75.3281 39.1632 75.3881 39.1849 75.448L39.2035 75.4997L39.2149 75.5318C39.2407 75.6031 39.2666 75.6744 39.2893 75.7468C39.3121 75.8202 39.3317 75.8946 39.3503 75.969L39.3606 76.0114C39.3803 76.0858 39.3989 76.1602 39.4154 76.2367C39.434 76.3256 39.4485 76.4145 39.463 76.5034C39.4754 76.5799 39.4867 76.6553 39.496 76.7328C39.5074 76.8269 39.5147 76.921 39.5198 77.015C39.524 77.0863 39.5281 77.1587 39.5302 77.23C39.5322 77.3292 39.5322 77.4274 39.5291 77.5267C39.5271 77.5939 39.524 77.661 39.5198 77.7282C39.5126 77.8316 39.5033 77.9339 39.4909 78.0373C39.4836 78.0983 39.4743 78.1592 39.464 78.2213C39.4475 78.3288 39.4278 78.4352 39.4041 78.5417C39.3927 78.5934 39.3803 78.644 39.3637 78.706C39.3358 78.8166 39.3059 78.9272 39.2707 79.0358C39.2593 79.0699 39.248 79.104 39.2356 79.1381L39.2211 79.1784C39.1808 79.2921 39.1395 79.4048 39.0919 79.5164C39.0816 79.5412 39.0702 79.565 39.0578 79.5898L39.0361 79.6353C38.9823 79.751 38.9276 79.8668 38.8655 79.9795C38.8562 79.997 38.8459 80.0136 38.8356 80.0301L38.8108 80.0715C38.7281 80.2162 38.6609 80.3247 38.5937 80.4229L38.5741 80.4498L38.5523 80.4797C38.4521 80.6234 38.3642 80.7392 38.2764 80.8436C38.1554 80.9883 38.0521 81.102 37.9518 81.2033C35.9931 83.2623 33.072 84.3951 29.7262 84.3951C23.7808 84.3951 17.0105 80.8725 10.6619 74.4764C4.20383 68.0669 0.682254 61.2408 0.745305 55.2561C0.779415 51.9785 1.9133 49.1132 3.93922 47.1855C4.03948 47.0853 4.15008 46.986 4.29685 46.862C4.40228 46.7741 4.51805 46.6863 4.66172 46.586L4.69067 46.5643L4.71651 46.5457C4.81574 46.4785 4.92427 46.4113 5.07001 46.3276L5.11032 46.3038C5.12686 46.2935 5.1434 46.2842 5.15993 46.2749C5.27363 46.2129 5.3894 46.1571 5.5062 46.1033L5.55064 46.0827C5.57442 46.0713 5.59819 46.0599 5.623 46.0496C5.73463 46.002 5.84833 45.9596 5.96306 45.9193L6.00338 45.9049C6.03645 45.8925 6.06953 45.8811 6.10364 45.8708C6.2132 45.8356 6.3238 45.8056 6.4468 45.7746C6.49642 45.7622 6.54706 45.7488 6.59771 45.7385C6.70417 45.7147 6.81167 45.6961 6.9202 45.6785C6.98119 45.6692 7.04114 45.6599 7.10212 45.6527C7.20548 45.6403 7.30885 45.6299 7.41324 45.6237C7.4794 45.6196 7.54555 45.6165 7.61273 45.6144C7.66958 45.6061 7.72747 45.6051 7.78638 45.6051ZM7.78638 45.4966C7.72643 45.4966 7.66752 45.4976 7.60757 45.4997C7.53935 45.5017 7.47216 45.5049 7.40394 45.509C7.29748 45.5162 7.19205 45.5255 7.08662 45.539C7.0246 45.5462 6.96258 45.5555 6.9016 45.5658C6.79203 45.5834 6.68247 45.603 6.5729 45.6268C6.51709 45.6392 6.46231 45.6527 6.40752 45.6671C6.29382 45.6961 6.18116 45.7271 6.06953 45.7622C6.02095 45.7777 5.9734 45.7953 5.92585 45.8118C5.80905 45.8532 5.69329 45.8956 5.57959 45.9452C5.53927 45.9628 5.5 45.9824 5.45969 46.001C5.34082 46.0558 5.22195 46.1126 5.10618 46.1757C5.07518 46.1932 5.0452 46.2119 5.01419 46.2305C4.89222 46.3007 4.77129 46.3731 4.65345 46.4527C4.63382 46.4661 4.61624 46.4806 4.59764 46.494C4.4705 46.5829 4.34647 46.6749 4.22553 46.7762C4.10046 46.8806 3.97746 46.9881 3.86066 47.1059C-1.04184 51.7707 -1.4801 62.5752 10.5844 74.5498C17.734 81.7532 24.4671 84.4995 29.7241 84.4995C33.2726 84.4995 36.1481 83.2488 38.0283 81.2736C38.1451 81.1568 38.2536 81.0338 38.358 80.9087C38.4583 80.7888 38.5503 80.6648 38.6392 80.5376C38.6526 80.518 38.6681 80.4994 38.6815 80.4797C38.7611 80.3629 38.8335 80.243 38.9027 80.1211C38.9213 80.089 38.941 80.0591 38.9586 80.027C39.0216 79.9123 39.0785 79.7944 39.1322 79.6756C39.1508 79.6353 39.1705 79.595 39.188 79.5536C39.2366 79.4399 39.28 79.3252 39.3203 79.2084C39.3369 79.1598 39.3555 79.1123 39.371 79.0626C39.4072 78.951 39.4371 78.8394 39.4661 78.7257C39.4805 78.6699 39.494 78.614 39.5064 78.5582C39.5302 78.4497 39.5498 78.3412 39.5674 78.2316C39.5777 78.1696 39.586 78.1065 39.5942 78.0445C39.6066 77.9401 39.617 77.8347 39.6242 77.7293C39.6284 77.661 39.6315 77.5928 39.6335 77.5246C39.6366 77.4233 39.6377 77.323 39.6346 77.2217C39.6325 77.1484 39.6284 77.075 39.6242 77.0026C39.618 76.9065 39.6108 76.8104 39.5994 76.7142C39.5901 76.6357 39.5787 76.5582 39.5663 76.4806C39.5519 76.3897 39.5374 76.2987 39.5178 76.2088C39.5002 76.1271 39.4795 76.0455 39.4588 75.9649C39.4371 75.8801 39.4154 75.7943 39.3896 75.7106C39.3637 75.6258 39.3317 75.5421 39.3017 75.4584C39.2728 75.3788 39.2459 75.3002 39.2128 75.2217C39.1767 75.1338 39.1343 75.0491 39.0929 74.9633C39.0588 74.8909 39.0257 74.8186 38.9885 74.7472C38.94 74.6573 38.8852 74.5695 38.8314 74.4816C38.7932 74.4186 38.757 74.3534 38.7157 74.2914C38.6505 74.1942 38.5782 74.1002 38.5069 74.0061C38.4697 73.9565 38.4355 73.9059 38.3963 73.8573C38.2815 73.7167 38.1585 73.5803 38.0283 73.45L34.4923 69.914C34.361 69.7827 34.2245 69.6608 34.085 69.546C34.0375 69.5067 33.9858 69.4726 33.9372 69.4354C33.8431 69.3631 33.7491 69.2907 33.6509 69.2256C33.5889 69.1842 33.5248 69.1491 33.4617 69.1109C33.3739 69.0571 33.286 69.0023 33.195 68.9537C33.1248 68.9155 33.0514 68.8835 32.9801 68.8494C32.8943 68.808 32.8085 68.7656 32.7206 68.7295C32.6421 68.6964 32.5635 68.6695 32.4839 68.6406C32.4002 68.6106 32.3175 68.5796 32.2327 68.5527C32.148 68.5269 32.0622 68.5052 31.9764 68.4824C31.8958 68.4617 31.8152 68.4411 31.7345 68.4235C31.6436 68.4039 31.5526 68.3894 31.4606 68.3749C31.3831 68.3625 31.3066 68.3511 31.2291 68.3418C31.133 68.3305 31.0368 68.3232 30.9397 68.317C30.8663 68.3129 30.7939 68.3088 30.7205 68.3067C30.6792 68.3057 30.6378 68.3057 30.5965 68.3057C30.5366 68.3057 30.4776 68.3067 30.4177 68.3088C30.3495 68.3108 30.2823 68.3139 30.2141 68.3181C30.1076 68.3253 30.0022 68.3346 29.8967 68.348C29.8347 68.3553 29.7727 68.3646 29.7117 68.3749C29.6022 68.3925 29.4926 68.4121 29.383 68.4359C29.3272 68.4483 29.2724 68.4617 29.2176 68.4762C29.1039 68.5052 28.9913 68.5362 28.8796 68.5713C28.8311 68.5868 28.7835 68.6044 28.736 68.6209C28.6192 68.6623 28.5034 68.7047 28.3897 68.7543C28.3494 68.7718 28.3101 68.7915 28.2698 68.8101C28.1509 68.8649 28.0321 68.9217 27.9163 68.9848C27.8853 69.0023 27.8553 69.0209 27.8243 69.0395C27.7023 69.1098 27.5814 69.1822 27.4636 69.2618C27.4439 69.2752 27.4264 69.2897 27.4078 69.3031C27.2806 69.392 27.1566 69.484 27.0357 69.5853C26.9106 69.6897 26.7876 69.7972 26.6708 69.915L24.279 72.3068C24.126 72.4598 23.9244 72.5363 23.7239 72.5363C23.5234 72.5363 23.3218 72.4598 23.1688 72.3068L12.8274 61.9654C12.5214 61.6594 12.5214 61.1623 12.8274 60.8553L15.2192 58.4635C15.336 58.3467 15.4445 58.2237 15.5489 58.0986C15.6492 57.9787 15.7412 57.8546 15.8301 57.7275C15.8435 57.7079 15.859 57.6893 15.8725 57.6696C15.9521 57.5528 16.0244 57.4329 16.0937 57.311C16.1123 57.2789 16.1319 57.2489 16.1495 57.2169C16.2125 57.1022 16.2694 56.9843 16.3231 56.8655C16.3417 56.8252 16.3614 56.7848 16.3789 56.7435C16.4275 56.6298 16.4709 56.5151 16.5112 56.3983C16.5278 56.3497 16.5464 56.3021 16.5619 56.2525C16.5981 56.1409 16.628 56.0293 16.657 55.9156C16.6715 55.8597 16.6849 55.8039 16.6973 55.7481C16.7211 55.6396 16.7407 55.5311 16.7583 55.4215C16.7686 55.3595 16.7769 55.2964 16.7852 55.2344C16.7986 55.13 16.8079 55.0246 16.8151 54.9191C16.8193 54.8509 16.8224 54.7827 16.8244 54.7145C16.8275 54.6132 16.8286 54.5129 16.8255 54.4116C16.8234 54.3382 16.8193 54.2649 16.8151 54.1925C16.8089 54.0964 16.8017 54.0002 16.7903 53.9041C16.781 53.8256 16.7697 53.748 16.7572 53.6705C16.7428 53.5796 16.7283 53.4886 16.7087 53.3987C16.6911 53.317 16.6704 53.2354 16.6498 53.1547C16.628 53.07 16.6063 52.9842 16.5805 52.9005C16.5547 52.8157 16.5226 52.732 16.4926 52.6483C16.4637 52.5687 16.4368 52.4901 16.4037 52.4116C16.3676 52.3237 16.3252 52.2389 16.2838 52.1531C16.2497 52.0808 16.2167 52.0084 16.1795 51.9371C16.1309 51.8472 16.0761 51.7593 16.0223 51.6715C15.9841 51.6084 15.9479 51.5433 15.9066 51.4813C15.8415 51.3841 15.7691 51.2901 15.6978 51.196C15.6606 51.1464 15.6265 51.0957 15.5872 51.0472C15.4724 50.9066 15.3494 50.7702 15.2192 50.6399L11.6832 47.1039C11.5519 46.9726 11.4155 46.8506 11.2759 46.7359C11.2284 46.6966 11.1767 46.6625 11.1281 46.6253C11.034 46.5529 10.94 46.4806 10.8418 46.4155C10.7798 46.3741 10.7157 46.339 10.6526 46.3007C10.5648 46.247 10.4769 46.1922 10.386 46.1436C10.3157 46.1054 10.2423 46.0733 10.171 46.0392C10.0852 45.9979 9.99938 45.9555 9.91153 45.9193C9.83297 45.8863 9.75441 45.8594 9.67482 45.8304C9.5911 45.8005 9.50841 45.7695 9.42365 45.7426C9.33889 45.7167 9.2531 45.695 9.16731 45.6723C9.08669 45.6516 9.00607 45.631 8.92544 45.6134C8.83448 45.5937 8.74353 45.5793 8.65153 45.5648C8.57401 45.5524 8.49752 45.541 8.42 45.5317C8.32387 45.5204 8.22774 45.5131 8.13058 45.5069C8.0572 45.5028 7.98484 45.4986 7.91145 45.4966C7.86907 45.4976 7.82773 45.4966 7.78638 45.4966Z" fill="#424242"/>
<path d="M51.6345 44.6475C48.6411 46.1979 45.258 47.0899 41.6713 47.0899C38.0846 47.0899 34.7016 46.1979 31.7082 44.6475C27.4196 45.2873 23.4453 46.9194 20.0209 49.2947C20.1212 49.459 20.208 49.6047 20.2845 49.7484C20.3486 49.8683 20.4096 49.9934 20.4685 50.1185C20.5708 50.3314 20.637 50.474 20.6959 50.6167C20.7589 50.7696 20.8044 50.8926 20.8489 51.0156C20.9305 51.2379 20.9822 51.3878 21.0297 51.5418C21.0732 51.6782 21.1176 51.8456 21.161 52.0162C21.191 52.1309 21.2303 52.2891 21.2633 52.4462C21.3006 52.6209 21.3295 52.7894 21.3553 52.9578C21.375 53.0726 21.3967 53.2193 21.4132 53.3661C21.4349 53.5532 21.4494 53.7279 21.4597 53.9026C21.468 54.0421 21.4752 54.1817 21.4783 54.3171C21.4825 54.4866 21.4814 54.6706 21.4763 54.8556C21.4732 54.9806 21.467 55.1078 21.4577 55.2329C21.4442 55.4282 21.4267 55.6246 21.4019 55.8179C21.3915 55.9057 21.375 56.0163 21.3584 56.128C21.3233 56.3512 21.2861 56.5549 21.2406 56.7595C21.221 56.8494 21.1941 56.9559 21.1672 57.0644C21.1145 57.2712 21.0577 57.4779 20.9915 57.6826L20.916 57.9027C20.8261 58.158 20.7455 58.3699 20.6556 58.5787L20.546 58.8206C20.4499 59.0294 20.3455 59.2433 20.2308 59.4521L20.1088 59.664C20.0013 59.8532 19.8669 60.0723 19.7201 60.2883L19.5982 60.4568C19.4473 60.6697 19.2881 60.8785 19.1175 61.0822C19.0286 61.1897 18.9366 61.2961 18.8416 61.4016L23.7317 66.2916C23.8381 66.1955 23.9456 66.1025 24.0552 66.0115C24.2536 65.8462 24.4624 65.688 24.6754 65.5361L24.8366 65.4213C25.0702 65.2632 25.2924 65.1267 25.5198 64.9975C25.525 64.9924 25.6015 64.9479 25.68 64.9056C25.893 64.7888 26.1142 64.6792 26.3405 64.5769C26.3963 64.55 26.4832 64.5107 26.57 64.4725C26.7498 64.3949 26.9638 64.3133 27.1798 64.2358L27.492 64.1303C27.6429 64.0807 27.8486 64.0228 28.0564 63.9701C28.1701 63.9412 28.2796 63.9133 28.3913 63.8895C28.6062 63.843 28.8006 63.8078 28.9949 63.7779C29.0714 63.7644 29.184 63.7489 29.2967 63.7334C29.5448 63.7055 29.7246 63.6879 29.9045 63.6755C30.0047 63.6683 30.1412 63.6611 30.2797 63.6569L30.596 63.6528L30.6797 63.6549C30.7242 63.6549 30.7696 63.6528 30.8141 63.6549L31.1986 63.6714C31.4405 63.689 31.6007 63.7014 31.7619 63.72C31.9056 63.7376 32.041 63.7572 32.1764 63.7789C32.3459 63.8047 32.5206 63.8357 32.6953 63.8719C32.8234 63.8988 32.9506 63.9308 33.0777 63.9629C33.2948 64.0187 33.4529 64.0611 33.609 64.1097C33.7558 64.1551 33.8933 64.2037 34.0307 64.2544C34.0349 64.2554 34.0369 64.2564 34.0411 64.2585H34.0421H34.0431C34.2375 64.3267 34.3915 64.3856 34.5444 64.4497C34.6674 64.5004 34.8297 64.5758 34.993 64.6544C35.1439 64.7247 35.2804 64.7929 35.4158 64.8652C35.5398 64.9314 35.6918 65.0203 35.8416 65.1123C36.0039 65.2084 36.1187 65.2787 36.2324 65.3541C36.4101 65.473 36.5755 65.595 36.7368 65.72C36.8153 65.7759 36.928 65.8596 37.0376 65.9506C37.296 66.1614 37.5471 66.3878 37.789 66.6307L41.3188 70.1605C41.5586 70.4003 41.784 70.6505 41.9948 70.9078L42.2284 71.2117C42.3731 71.4019 42.491 71.5632 42.6005 71.7296C42.6595 71.8174 42.7349 71.9404 42.8093 72.0645C42.9344 72.2702 43.0223 72.4221 43.1039 72.5761C43.1566 72.6743 43.2176 72.7994 43.2776 72.9255C43.3799 73.1394 43.444 73.279 43.505 73.4216C43.5649 73.5653 43.6125 73.6955 43.659 73.8258C43.7406 74.0501 43.7902 74.1917 43.8347 74.3343C43.874 74.4614 43.9132 74.6062 43.9505 74.7498C44.0001 74.9411 44.0352 75.0827 44.0662 75.2263C44.1096 75.4372 44.1375 75.5995 44.1644 75.7649C44.1851 75.8899 44.2058 76.0336 44.2233 76.1804C44.243 76.3468 44.2554 76.5153 44.2678 76.6827C44.2781 76.8522 44.2854 76.9876 44.2885 77.1251C44.2926 77.2905 44.2916 77.4776 44.2854 77.6636C44.2823 77.7866 44.2761 77.9107 44.2678 78.0357C44.2543 78.2342 44.2368 78.4275 44.212 78.6208C44.1996 78.7179 44.1841 78.8327 44.1655 78.9453C44.1334 79.151 44.0962 79.3546 44.0518 79.5541C44.0321 79.6461 44.0052 79.7588 43.9763 79.8725C43.9246 80.073 43.8688 80.2735 43.8068 80.471C43.7789 80.5609 43.7448 80.655 43.7107 80.749C43.6404 80.9537 43.5577 81.1707 43.4647 81.3857L43.3561 81.6276C43.2631 81.8292 43.1577 82.0452 43.0398 82.2591L42.9179 82.471C42.8073 82.6643 42.677 82.8762 42.5365 83.084L42.3959 83.2804C42.2501 83.485 42.0982 83.6856 41.9359 83.8799L41.9308 83.8861C41.8388 83.9967 41.7364 84.1 41.6403 84.2075C41.5473 84.3109 41.4584 84.4184 41.3602 84.5166C41.2599 84.621 41.1473 84.7109 41.0439 84.8112C40.7814 85.0675 40.5209 85.3259 40.2397 85.5616C40.0537 85.7166 39.8521 85.852 39.6578 85.9978C39.4428 86.1601 39.235 86.3306 39.0097 86.4815C38.7803 86.6355 38.5342 86.7668 38.2955 86.9074C38.0908 87.0283 37.8934 87.1585 37.6815 87.2702C37.4262 87.4045 37.1554 87.5172 36.8908 87.6381C36.6799 87.7343 36.4763 87.8397 36.2613 87.9265C35.9967 88.033 35.7186 88.1178 35.4468 88.2108C35.2163 88.2893 34.992 88.3772 34.7563 88.4464C34.4907 88.524 34.2147 88.5798 33.9429 88.6449C33.6876 88.7059 33.4364 88.7751 33.1759 88.8248C32.9123 88.8744 32.6415 88.9043 32.3728 88.9426C32.0916 88.9829 31.8146 89.0304 31.5283 89.0584C31.2668 89.0832 30.9991 89.0883 30.7335 89.1018C30.4657 89.1162 30.2032 89.1431 29.9324 89.1462C29.8642 89.1472 29.7949 89.1472 29.7257 89.1472C29.7246 89.1472 29.7236 89.1472 29.7236 89.1472C29.491 89.1472 29.2471 89.1379 29.0032 89.1297C28.9122 89.1266 28.8264 89.1276 28.7334 89.1235C23.9497 88.8919 17.0854 86.8981 9.2009 79.6606C9.13681 79.6017 9.0748 79.551 9.01071 79.4921C8.67168 79.1779 8.32748 78.8347 7.98535 78.5009V90.462C7.98535 92.1375 9.35594 93.5071 11.0304 93.5071H72.3132C73.9887 93.5071 75.3583 92.1365 75.3583 90.462V72.1616C75.3583 58.2521 65.0117 46.6444 51.6345 44.6475Z" fill="#424242"/>
</svg>
