<svg width="50" height="50" viewBox="0 0 50 50" fill="none" xmlns="http://www.w3.org/2000/svg">
<path fill-rule="evenodd" clip-rule="evenodd" d="M25 0C38.7972 0 50 11.1878 50 25C50 38.7972 38.8122 50 25 50C11.2028 50 0 38.8122 0 25C0 11.2028 11.1878 0 25 0ZM35.4979 14.2771C32.8734 11.6527 29.3941 10.213 25.6749 10.213C18.0264 10.213 11.8026 16.4367 11.8026 24.0852C11.8026 26.5297 12.4475 28.9142 13.6623 31.0138L11.6977 38.2124L19.0612 36.2777C21.0858 37.3875 23.3653 37.9724 25.6899 37.9724C33.3383 37.9724 39.5621 31.7487 39.5621 24.1002C39.5621 20.3959 38.1224 16.9016 35.4979 14.2771ZM25.6899 35.6329C23.6203 35.6329 21.5807 35.078 19.811 34.0282L19.3911 33.7732L15.027 34.913L16.1968 30.6539L15.9268 30.219C14.772 28.3893 14.1572 26.2597 14.1572 24.0852C14.1572 17.7265 19.3311 12.5525 25.7049 12.5525C28.7792 12.5525 31.6887 13.7522 33.8632 15.9268C36.0378 18.1164 37.2376 20.9958 37.2376 24.0852C37.2376 30.4439 32.0636 35.6329 25.7049 35.6329H25.6899ZM32.0186 26.9946C31.6737 26.8146 29.964 25.9898 29.6491 25.8698C29.3341 25.7499 29.0942 25.6899 28.8692 26.0498C28.6443 26.3947 27.9694 27.1746 27.7744 27.4145C27.5645 27.6395 27.3695 27.6845 27.0246 27.5045C26.6797 27.3245 25.5549 26.9646 24.2352 25.7798C23.2004 24.865 22.5105 23.7253 22.3005 23.3803C22.0906 23.0354 22.2705 22.8404 22.4505 22.6755C22.6155 22.5255 22.7954 22.2705 22.9754 22.0606C23.1554 21.8506 23.2004 21.7157 23.3203 21.4757C23.4403 21.2508 23.3803 21.0408 23.2903 20.8608C23.2004 20.6809 22.5105 18.9862 22.2256 18.2813C21.9406 17.6065 21.6557 17.6965 21.4457 17.6815C21.2358 17.6665 21.0108 17.6665 20.7858 17.6665C20.5609 17.6665 20.186 17.7564 19.856 18.1014C19.5411 18.4463 18.6413 19.2861 18.6413 20.9958C18.6413 22.7055 19.886 24.3551 20.051 24.5801C20.231 24.805 22.4955 28.3143 25.9748 29.814C26.7996 30.174 27.4445 30.3839 27.9544 30.5489C28.7792 30.8038 29.5441 30.7738 30.144 30.6839C30.8038 30.5789 32.1986 29.844 32.4835 29.0342C32.7684 28.2244 32.7684 27.5345 32.6935 27.3845C32.6185 27.2346 32.3785 27.1446 32.0336 26.9646L32.0186 26.9946Z" fill="#424242"/>
</svg>
